2.8Hzlow3min_grf.mot
version=1
nRows=10
nColumns 19
inDegrees=yes
endheader
time	1_ground_force_vx	1_ground_force_vy	1_ground_force_vz	1_ground_force_px	1_ground_force_py	1_ground_force_pz	1_ground_torque_x	1_ground_torque_y	1_ground_torque_z	2_ground_force_vx	2_ground_force_vy	2_ground_force_vz	2_ground_force_px	2_ground_force_py	2_ground_force_pz	2_ground_torque_x	2_ground_torque_y	2_ground_torque_z
            0.005000	           -1.275790	          195.231614	           -0.122784	           -0.225944	            0.006346	           -0.433667	           -0.004428	            0.677540	           -0.000426	            1.165446	          262.741556	           13.748099	           -0.251565	            0.005464	           -0.666566	            0.004173	            0.940774	            0.049227
            0.005500	           -0.908223	          190.725043	           -0.143018	           -0.225975	            0.006342	           -0.432764	           -0.003498	            0.734616	           -0.000551	            1.090273	          257.585765	           13.542029	           -0.251079	            0.005466	           -0.666431	            0.004088	            0.965908	            0.050781
            0.006000	           -0.769575	          184.596037	           -0.169640	           -0.225905	            0.006346	           -0.433675	           -0.002314	            0.554958	           -0.000510	            1.110836	          251.877494	           13.427804	           -0.251443	            0.005463	           -0.666144	            0.004453	            1.009798	            0.053833
            0.006500	           -0.264285	          180.269365	           -0.097731	           -0.225605	            0.006342	           -0.432725	           -0.000676	            0.460807	           -0.000250	            1.173492	          247.459275	           13.083518	           -0.251407	            0.005464	           -0.666414	            0.004876	            1.028161	            0.054360
            0.007000	           -0.629895	          174.680862	           -0.074927	           -0.225556	            0.006344	           -0.433241	           -0.000960	            0.266255	           -0.000114	            1.100999	          241.566692	           12.921747	           -0.251492	            0.005462	           -0.665834	            0.004803	            1.053804	            0.056369
            0.007500	           -0.353200	          169.452031	            0.177110	           -0.225687	            0.006345	           -0.433460	           -0.000777	            0.372906	            0.000390	            1.163155	          237.331275	           12.953543	           -0.251274	            0.005466	           -0.666638	            0.004911	            1.002047	            0.054692
            0.008000	           -0.214474	          164.764560	            0.294240	           -0.225772	            0.006346	           -0.433713	           -0.000639	            0.490936	            0.000877	            1.321629	          232.359968	           12.888815	           -0.251195	            0.005464	           -0.665972	            0.005622	            0.988433	            0.054828
            0.008500	           -0.351066	          160.257695	            0.321113	           -0.225356	            0.006346	           -0.433693	           -0.001326	            0.605227	            0.001213	            1.666756	          227.574117	           12.636951	           -0.251154	            0.005466	           -0.666570	            0.006399	            0.873713	            0.048516
            0.009000	            0.291966	          155.390056	            0.436218	           -0.225533	            0.006346	           -0.433675	            0.001268	            0.674802	            0.001894	            1.500562	          221.681196	           12.475220	           -0.251416	            0.005462	           -0.665772	            0.006239	            0.921690	            0.051869
            0.009500	            0.247287	          150.882815	            0.554575	           -0.225437	            0.006346	           -0.433750	            0.000746	            0.455119	            0.001673	            1.607555	          217.998568	           12.462039	           -0.251215	            0.005465	           -0.666382	            0.006500	            0.881411	            0.050386
